<?xml version="1.0" encoding="iso-8859-1"?>
<!-- Generator: Adobe Illustrator 19.0.0, SVG Export Plug-In . SVG Version: 6.00 Build 0)  -->
<svg version="1.1" id="Capa_1" xmlns="http://www.w3.org/2000/svg" xmlns:xlink="http://www.w3.org/1999/xlink" x="0px" y="0px"
	 viewBox="0 0 512 512" style="enable-background:new 0 0 512 512;" xml:space="preserve">
<path style="fill:#E8EBEF;" d="M476.778,512H35.222c-2.845,0-5.152-2.306-5.152-5.152V5.152C30.07,2.306,32.376,0,35.222,0h441.556
	c2.845,0,5.152,2.306,5.152,5.152v501.696C481.929,509.694,479.623,512,476.778,512z"/>
<path style="fill:#C7D5E0;" d="M476.778,512h-37.402V0h37.402c2.845,0,5.152,2.306,5.152,5.152v501.696
	C481.929,509.694,479.623,512,476.778,512z"/>
<circle style="fill:#E44849;" cx="347.62" cy="32.317" r="11.592"/>
<circle style="fill:#24DEDD;" cx="393.496" cy="32.317" r="11.592"/>
<circle style="fill:#F5D647;" cx="439.372" cy="32.317" r="11.592"/>
<path style="fill:#F7D95C;" d="M436.185,214.458H75.814c-2.845,0-5.152-2.306-5.152-5.152v-97.898c0-2.845,2.306-5.152,5.152-5.152
	h360.372c2.845,0,5.152,2.306,5.152,5.152v97.898C441.338,212.151,439.03,214.458,436.185,214.458z"/>
<path style="fill:#F4BF4A;" d="M436.185,214.458h-42.688V106.256h42.688c2.845,0,5.152,2.306,5.152,5.152v97.898
	C441.338,212.151,439.03,214.458,436.185,214.458z"/>
<path style="fill:#E44849;" d="M436.185,321.127h-87.468c-2.845,0-5.152-2.306-5.152-5.152v-65.96c0-2.845,2.306-5.152,5.152-5.152
	h87.468c2.845,0,5.152,2.306,5.152,5.152v65.96C441.338,318.82,439.03,321.127,436.185,321.127z"/>
<path style="fill:#DD313A;" d="M436.185,321.127h-42.688v-76.264h42.688c2.845,0,5.152,2.306,5.152,5.152v65.96
	C441.338,318.82,439.03,321.127,436.185,321.127z"/>
<path style="fill:#E44849;" d="M299.734,321.127h-87.468c-2.845,0-5.152-2.306-5.152-5.152v-65.96c0-2.845,2.306-5.152,5.152-5.152
	h87.468c2.845,0,5.152,2.306,5.152,5.152v65.96C304.885,318.82,302.579,321.127,299.734,321.127z"/>
<path style="fill:#DD313A;" d="M299.734,321.127h-42.688v-76.264h42.688c2.845,0,5.152,2.306,5.152,5.152v65.96
	C304.885,318.82,302.579,321.127,299.734,321.127z"/>
<path style="fill:#E44849;" d="M163.282,321.127H75.814c-2.845,0-5.152-2.306-5.152-5.152v-65.96c0-2.845,2.306-5.152,5.152-5.152
	h87.468c2.845,0,5.152,2.306,5.152,5.152v65.96C168.434,318.82,166.128,321.127,163.282,321.127z"/>
<path style="fill:#DD313A;" d="M163.282,321.127h-42.688v-76.264h42.688c2.845,0,5.152,2.306,5.152,5.152v65.96
	C168.434,318.82,166.128,321.127,163.282,321.127z"/>
<g>
	<path style="fill:#95A7C1;" d="M168.434,365.737H70.662c-4.268,0-7.728-3.46-7.728-7.728c0-4.268,3.459-7.728,7.728-7.728h97.772
		c4.268,0,7.728,3.46,7.728,7.728C176.162,362.277,172.703,365.737,168.434,365.737z"/>
	<path style="fill:#95A7C1;" d="M168.434,399.74H70.662c-4.268,0-7.728-3.46-7.728-7.728c0-4.268,3.459-7.728,7.728-7.728h97.772
		c4.268,0,7.728,3.46,7.728,7.728C176.162,396.28,172.703,399.74,168.434,399.74z"/>
	<path style="fill:#95A7C1;" d="M168.434,433.743H70.662c-4.268,0-7.728-3.46-7.728-7.728s3.459-7.728,7.728-7.728h97.772
		c4.268,0,7.728,3.46,7.728,7.728C176.162,430.283,172.703,433.743,168.434,433.743z"/>
	<path style="fill:#95A7C1;" d="M168.434,467.746H70.662c-4.268,0-7.728-3.46-7.728-7.728c0-4.268,3.459-7.728,7.728-7.728h97.772
		c4.268,0,7.728,3.46,7.728,7.728C176.162,464.286,172.703,467.746,168.434,467.746z"/>
	<path style="fill:#95A7C1;" d="M304.885,365.737h-97.771c-4.268,0-7.728-3.46-7.728-7.728c0-4.268,3.459-7.728,7.728-7.728h97.771
		c4.268,0,7.728,3.46,7.728,7.728S309.154,365.737,304.885,365.737z"/>
	<path style="fill:#95A7C1;" d="M304.885,399.74h-97.771c-4.268,0-7.728-3.46-7.728-7.728c0-4.268,3.459-7.728,7.728-7.728h97.771
		c4.268,0,7.728,3.46,7.728,7.728C312.613,396.28,309.154,399.74,304.885,399.74z"/>
	<path style="fill:#95A7C1;" d="M304.885,433.743h-97.771c-4.268,0-7.728-3.46-7.728-7.728s3.459-7.728,7.728-7.728h97.771
		c4.268,0,7.728,3.46,7.728,7.728C312.613,430.283,309.154,433.743,304.885,433.743z"/>
	<path style="fill:#95A7C1;" d="M304.885,467.746h-97.771c-4.268,0-7.728-3.46-7.728-7.728c0-4.268,3.459-7.728,7.728-7.728h97.771
		c4.268,0,7.728,3.46,7.728,7.728C312.613,464.286,309.154,467.746,304.885,467.746z"/>
	<path style="fill:#95A7C1;" d="M441.337,365.737h-97.772c-4.268,0-7.728-3.46-7.728-7.728c0-4.268,3.459-7.728,7.728-7.728h97.772
		c4.268,0,7.728,3.46,7.728,7.728C449.065,362.277,445.606,365.737,441.337,365.737z"/>
	<path style="fill:#95A7C1;" d="M441.337,399.74h-97.772c-4.268,0-7.728-3.46-7.728-7.728c0-4.268,3.459-7.728,7.728-7.728h97.772
		c4.268,0,7.728,3.46,7.728,7.728C449.065,396.28,445.606,399.74,441.337,399.74z"/>
	<path style="fill:#95A7C1;" d="M441.337,433.743h-97.772c-4.268,0-7.728-3.46-7.728-7.728s3.459-7.728,7.728-7.728h97.772
		c4.268,0,7.728,3.46,7.728,7.728C449.065,430.283,445.606,433.743,441.337,433.743z"/>
	<path style="fill:#95A7C1;" d="M441.337,467.746h-97.772c-4.268,0-7.728-3.46-7.728-7.728c0-4.268,3.459-7.728,7.728-7.728h97.772
		c4.268,0,7.728,3.46,7.728,7.728C449.065,464.286,445.606,467.746,441.337,467.746z"/>
</g>
<g>
</g>
<g>
</g>
<g>
</g>
<g>
</g>
<g>
</g>
<g>
</g>
<g>
</g>
<g>
</g>
<g>
</g>
<g>
</g>
<g>
</g>
<g>
</g>
<g>
</g>
<g>
</g>
<g>
</g>
</svg>
