<?xml version="1.0" encoding="iso-8859-1"?>
<!-- Generator: Adobe Illustrator 19.0.0, SVG Export Plug-In . SVG Version: 6.00 Build 0)  -->
<svg version="1.1" id="Capa_1" xmlns="http://www.w3.org/2000/svg" xmlns:xlink="http://www.w3.org/1999/xlink" x="0px" y="0px"
	 viewBox="0 0 400 400" style="enable-background:new 0 0 400 400;" xml:space="preserve">
<path style="fill:#FFDC69;" d="M312,0H112C94.328,0,80,14.328,80,32v8H32C14.328,40,0,54.328,0,72v40c0,17.672,14.328,32,32,32h48
	v56v104v32c0,17.68,14.32,32,32,32h24h24c0,17.672,14.328,32,32,32h96c17.672,0,32-14.328,32-32h24h24c17.672,0,32-14.328,32-32V88
	v-8L320,0H312z M272,72c0-17.672-14.328-32-32-32C257.68,40,272,54.32,272,72z M272,112c0,17.68-14.32,32-32,32
	C257.672,144,272,129.672,272,112z"/>
<path style="fill:#FF8C5A;" d="M272,72v40c0,17.672-14.328,32-32,32H32c-17.672,0-32-14.328-32-32V72c0-17.672,14.328-32,32-32h208
	C257.672,40,272,54.328,272,72z"/>
<path style="fill:#FEEC9F;" d="M288,400h-96c-17.672,0-32-14.328-32-32v-80c0-17.672,14.328-32,32-32h96c17.672,0,32,14.328,32,32
	v80C320,385.672,305.672,400,288,400z"/>
<polygon style="fill:#FFFFFF;" points="240,360 216,360 216,336 256,296 280,320 "/>
<path style="fill:#FFB855;" d="M320,0h-8v56c0,17.672,14.328,32,32,32h56v-8L320,0z"/>
<g>
	<rect x="24" y="104" style="fill:#FFFFFF;" width="16" height="16"/>
	<path style="fill:#FFFFFF;" d="M90.632,91.816c0-18.088-9.912-27.648-28.656-27.648H45.144v55.808h17.664
		C80.496,119.968,90.632,109.704,90.632,91.816z M61.16,106.792V77.344c6.824,0,13.136,1.752,13.136,14.472
		C74.288,105.088,67.272,106.792,61.16,106.792z"/>
	<path style="fill:#FFFFFF;" d="M122.216,120.968c15.784,0,25.984-11.448,25.984-29.16c0-17.672-9.96-28.648-25.984-28.648
		S96.232,74.136,96.232,91.808C96.232,109.52,106.44,120.968,122.216,120.968z M122.216,77.168c6.048,0,9.648,5.472,9.648,14.64
		c0,9.344-3.696,15.144-9.648,15.144c-5.944,0-9.64-5.8-9.64-15.144C112.576,82.64,116.176,77.168,122.216,77.168z"/>
	<path style="fill:#FFFFFF;" d="M181.296,77.168c3.328,0,5.504,1.32,7.936,3.456l0.632,0.544l8.368-9.448l0.528-0.584l-0.56-0.56
		c-4.712-4.712-10.936-7.416-17.08-7.416c-13.568,0-27.312,10.072-27.312,29.32c0,17.304,10.592,28.488,26.984,28.488
		c7.088,0,13.512-2.944,18.12-8.296l0.48-0.56l-8.928-9.88l-0.624,0.672c-2.544,2.728-5.456,4.056-8.872,4.056
		c-6.776,0-10.816-5.592-10.816-14.968C170.152,83.256,174.736,77.168,181.296,77.168z"/>
	<path style="fill:#FFFFFF;" d="M247.568,64.168h-17.28l-3.352,9.352c-0.832,2.08-1.792,4.536-2.784,7.4
		c-0.32-0.768-0.624-1.504-0.92-2.208c-0.8-1.936-1.52-3.68-2.232-5.192l-3.872-9.344h-17.936l14.264,27.152l-15.104,28.656h17.272
		l4.208-10.176c0.96-2.328,1.944-4.728,2.92-7.4c1.128,2.8,2.112,5.112,3.192,7.424l4.544,10.16h17.936L233.312,92L247.568,64.168z"
		/>
</g>
<g>
</g>
<g>
</g>
<g>
</g>
<g>
</g>
<g>
</g>
<g>
</g>
<g>
</g>
<g>
</g>
<g>
</g>
<g>
</g>
<g>
</g>
<g>
</g>
<g>
</g>
<g>
</g>
<g>
</g>
</svg>
